<?xml version="1.0" encoding="UTF-8" standalone="no"?><!DOCTYPE svg PUBLIC "-//W3C//DTD SVG 1.1//EN" "http://www.w3.org/Graphics/SVG/1.1/DTD/svg11.dtd"><svg width="100%" height="100%" viewBox="0 0 240 240" version="1.1" xmlns="http://www.w3.org/2000/svg" xmlns:xlink="http://www.w3.org/1999/xlink" xml:space="preserve" xmlns:serif="http://www.serif.com/" style="fill-rule:evenodd;clip-rule:evenodd;stroke-linejoin:round;stroke-miterlimit:1.41421;"><path d="M107.344,60l-81.563,0c-8.529,0 -15.469,6.939 -15.469,15.469l0,89.531c0,0.097 0.008,0.192 0.02,0.286c0.395,8.18 7.173,14.714 15.449,14.714l81.563,0c1.294,0 2.343,-1.05 2.343,-2.344l0,-115.312c0,-1.294 -1.049,-2.344 -2.343,-2.344Zm-92.344,15.469c0,-5.14 3.616,-9.452 8.438,-10.525l-0.001,84.296c-3.256,0.497 -6.179,2.015 -8.437,4.214l0,-77.985Zm90,73.593l-49.453,0c-1.294,0 -2.344,1.05 -2.344,2.344c0,1.294 1.05,2.344 2.344,2.344l21.244,0l0,16.691c0,0.886 0.499,1.696 1.29,2.094c0.792,0.399 1.739,0.316 2.45,-0.211l7.041,-5.225l7.041,5.225c0.412,0.305 0.903,0.461 1.397,0.461c0.359,0 0.72,-0.082 1.053,-0.25c0.791,-0.398 1.29,-1.208 1.29,-2.093l0,-16.692l6.647,0l0,21.563l-79.219,0c-5.944,0 -10.781,-4.837 -10.781,-10.782c0,-5.944 4.837,-10.781 10.781,-10.781l10.938,0c1.294,0 2.344,-1.05 2.344,-2.344c0,-1.294 -1.05,-2.343 -2.344,-2.343l-8.594,0l0,-84.375l76.875,0l0,84.375Zm-11.334,4.687l0,12.034l-4.697,-3.486c-0.829,-0.616 -1.964,-0.616 -2.794,0l-4.697,3.486l0,-12.034l12.188,0Z" style="fill-rule:nonzero;"/><path d="M48.063,149.749c-0.436,-0.436 -1.04,-0.686 -1.657,-0.686c-0.616,0 -1.221,0.25 -1.657,0.686c-0.436,0.436 -0.687,1.041 -0.687,1.657c0,0.617 0.251,1.221 0.687,1.657c0.436,0.436 1.041,0.687 1.657,0.687c0.617,0 1.221,-0.251 1.657,-0.687c0.436,-0.436 0.687,-1.04 0.687,-1.657c0,-0.616 -0.251,-1.221 -0.687,-1.657Z" style="fill-rule:nonzero;"/><path d="M60,158.435l-33.398,0c-1.295,0 -2.344,1.049 -2.344,2.343c0,1.295 1.049,2.344 2.344,2.344l33.398,0c1.294,0 2.344,-1.049 2.344,-2.344c0,-1.294 -1.05,-2.343 -2.344,-2.343Z" style="fill-rule:nonzero;"/><path d="M68.206,167.786l-41.604,0c-1.295,0 -2.344,1.05 -2.344,2.344c0,1.294 1.049,2.344 2.344,2.344l41.604,0c1.295,0 2.344,-1.05 2.344,-2.344c0,-1.294 -1.049,-2.344 -2.344,-2.344Z" style="fill-rule:nonzero;"/><path d="M69.863,159.122c-0.436,-0.436 -1.039,-0.687 -1.658,-0.687c-0.616,0 -1.221,0.251 -1.657,0.687c-0.435,0.436 -0.686,1.04 -0.686,1.657c0,0.616 0.251,1.221 0.686,1.657c0.439,0.436 1.041,0.687 1.657,0.687c0.619,0 1.222,-0.251 1.657,-0.687c0.439,-0.436 0.687,-1.041 0.687,-1.657c0,-0.617 -0.248,-1.221 -0.686,-1.657Z" style="fill-rule:nonzero;"/><path d="M84.824,102.188l-36.523,-0.001c-5.18,0.001 -9.395,4.215 -9.395,9.395l0,18.242c0,5.18 4.215,9.395 9.395,9.395l36.523,0c5.18,0 9.395,-4.215 9.395,-9.395l0,-18.242c0,-5.18 -4.215,-9.394 -9.395,-9.394Zm4.707,27.636c0,2.596 -2.111,4.707 -4.707,4.707l-36.523,0c-2.596,0 -4.707,-2.111 -4.707,-4.707l0,-18.242c0,-2.596 2.111,-4.707 4.707,-4.707l36.523,0c2.596,0 4.707,2.111 4.707,4.707l0,18.242Z" style="fill-rule:nonzero;"/><path d="M73.052,116.94l-8.156,-5.227c-1.376,-0.883 -3.121,-0.943 -4.555,-0.159c-1.435,0.785 -2.325,2.287 -2.325,3.921l0,10.455c0,1.635 0.89,3.138 2.325,3.922c0.669,0.366 1.407,0.548 2.144,0.548c0.84,0 1.678,-0.237 2.411,-0.707l8.156,-5.227c1.288,-0.826 2.057,-2.233 2.057,-3.763c0,-1.53 -0.769,-2.937 -2.057,-3.763Zm-10.349,8.591l0,-9.656l7.533,4.828l-7.533,4.828Z" style="fill-rule:nonzero;"/><path d="M71.584,86.719c1.294,0 2.343,-1.05 2.343,-2.344c0,-1.294 -1.049,-2.344 -2.343,-2.344l-7.6,0l0,-4.687l7.6,0c1.294,0 2.343,-1.05 2.343,-2.344c0,-1.294 -1.049,-2.344 -2.343,-2.344l-9.943,0c-1.295,0 -2.344,1.05 -2.344,2.344l0,18.75c0,1.294 1.049,2.344 2.344,2.344l9.943,0c1.294,0 2.343,-1.05 2.343,-2.344c0,-1.294 -1.049,-2.344 -2.343,-2.344l-7.6,0l0,-4.687l7.6,0Z" style="fill-rule:nonzero;"/><path d="M234.189,173.88l-29.162,-29.162c7.823,-8.993 12.559,-20.727 12.559,-33.552c0,-28.23 -22.962,-51.166 -51.166,-51.166c-28.231,0 -51.167,22.962 -51.167,51.166c0,28.204 22.963,51.167 51.167,51.167c12.824,0 24.558,-4.737 33.552,-12.559l29.162,29.162c0.691,0.691 1.623,1.064 2.527,1.064c0.905,0 1.836,-0.346 2.528,-1.064c1.384,-1.384 1.384,-3.672 0,-5.056Zm-111.778,-62.714c0,-24.266 19.743,-43.982 43.982,-43.982c24.266,0 43.982,19.743 43.982,43.982c0,24.24 -19.716,44.009 -43.982,44.009c-24.239,0 -43.982,-19.743 -43.982,-44.009Z" style="fill-rule:nonzero;"/></svg>